<svg width="66" height="66" viewBox="0 0 66 66" fill="none" xmlns="http://www.w3.org/2000/svg">
<rect x="0.166672" y="0.142853" width="65" height="65" rx="8" fill="#FAFAFA"/>
<path d="M22.2637 28.7627C22.2637 28.1932 22.7212 27.7314 23.2865 27.7314H28.7492C29.3158 27.7314 29.7734 28.1932 29.7734 28.7627C29.774 28.8978 29.7479 29.0316 29.6968 29.1566C29.6456 29.2816 29.5703 29.3953 29.4752 29.4912C29.3801 29.5871 29.267 29.6633 29.1424 29.7155C29.0179 29.7677 28.8842 29.7949 28.7492 29.7954H23.2865C23.014 29.7939 22.7532 29.6843 22.5614 29.4907C22.3696 29.2971 22.2625 29.0352 22.2637 28.7627Z" fill="#EC9109"/>
<path fill-rule="evenodd" clip-rule="evenodd" d="M45.3497 29.3152C45.2619 29.3095 45.1655 29.3095 45.0664 29.3095H41.1379C37.9207 29.3095 35.1667 31.7689 35.1667 34.9762C35.1667 38.1835 37.9207 40.6429 41.1379 40.6429H45.0664C45.1655 40.6429 45.2619 40.6429 45.3497 40.6372C46.6573 40.5579 47.8133 39.5648 47.911 38.1764C47.9167 38.0858 47.9167 37.988 47.9167 37.8974V32.055C47.9167 31.9644 47.9167 31.8666 47.911 31.7759C47.8133 30.3876 46.6573 29.3959 45.3497 29.3152ZM40.7923 36.4878C41.6196 36.4878 42.2911 35.8106 42.2911 34.9762C42.2911 34.1404 41.6196 33.4646 40.7923 33.4646C39.9635 33.4646 39.2906 34.1418 39.2906 34.9762C39.2906 35.812 39.9635 36.4878 40.7923 36.4878Z" fill="#EC9109"/>
<path d="M45.2817 29.3124C45.2817 27.6393 45.2193 25.8444 44.1512 24.5594C44.0468 24.4336 43.9366 24.3125 43.8211 24.1968C42.76 23.1371 41.4156 22.6668 39.7553 22.4429C38.1403 22.2262 36.079 22.2262 33.4752 22.2262H30.4832C27.8793 22.2262 25.8167 22.2262 24.2017 22.4429C22.5413 22.6668 21.1969 23.1371 20.1358 24.1968C19.0762 25.2579 18.6058 26.6023 18.382 28.2626C18.1667 29.8776 18.1667 31.9389 18.1667 34.5427V34.7014C18.1667 37.3052 18.1667 39.3679 18.3834 40.9814C18.6073 42.6418 19.0776 43.9862 20.1373 45.0473C21.1983 46.1069 22.5428 46.5773 24.2031 46.8011C25.8181 47.0179 27.8793 47.0179 30.4832 47.0179H33.4752C36.079 47.0179 38.1417 47.0179 39.7553 46.8011C41.4156 46.5773 42.76 46.1069 43.8211 45.0473C44.1033 44.7642 44.3533 44.4506 44.5663 44.1123C45.2038 43.0923 45.2803 41.8428 45.2803 40.6414L45.0678 40.6429H41.1379C37.9207 40.6429 35.1667 38.1835 35.1667 34.9762C35.1667 31.7689 37.9207 29.3095 41.1379 29.3095H45.0663C45.14 29.3095 45.2137 29.3095 45.2817 29.3124Z" fill="#493CDF"/>
<path d="M29.6431 18.7865L26.6667 20.7982L24.2116 22.4415C25.8238 22.2262 27.8836 22.2262 30.4818 22.2262H33.4752C36.079 22.2262 38.1417 22.2262 39.7553 22.4429C40.0811 22.4854 40.3928 22.5393 40.6931 22.6044L38 20.8095L35.0066 18.7865C34.2121 18.258 33.2791 17.9761 32.3248 17.9761C31.3706 17.9761 30.4376 18.258 29.6431 18.7865Z" fill="#EC9109"/>
</svg>
