<svg width="66" height="66" viewBox="0 0 66 66" fill="none" xmlns="http://www.w3.org/2000/svg">
<rect x="0.5" y="0.142853" width="65" height="65" rx="8" fill="#FAFAFA"/>
<path d="M34.7 18.7929C33.9889 18.2595 33.0111 18.2595 32.3 18.7929L21.6333 26.7929C21.1297 27.1706 20.8333 27.7633 20.8333 28.3929V44.3929C20.8333 45.4974 21.7288 46.3929 22.8333 46.3929H44.1667C45.2712 46.3929 46.1667 45.4974 46.1667 44.3929V28.3929C46.1667 27.7633 45.8703 27.1706 45.3667 26.7929L34.7 18.7929ZM34.2917 32.9345C34.2917 33.5433 34.0641 34.0976 33.6891 34.5174C32.9532 35.3412 31.9167 36.205 31.9167 37.3095V40.8512C31.9167 41.2884 31.5622 41.6429 31.125 41.6429C30.6878 41.6429 30.3333 41.2884 30.3333 40.8512V37.3095C30.3333 36.205 29.2968 35.3412 28.5609 34.5174C28.186 34.0976 27.9583 33.5433 27.9583 32.9345V28.9762C27.9583 28.539 28.3128 28.1845 28.75 28.1845C29.1872 28.1845 29.5417 28.539 29.5417 28.9762V32.5387C29.5417 32.7573 29.7189 32.9345 29.9375 32.9345C30.1561 32.9345 30.3333 32.7573 30.3333 32.5387V28.9762C30.3333 28.539 30.6878 28.1845 31.125 28.1845C31.5622 28.1845 31.9167 28.539 31.9167 28.9762V32.5387C31.9167 32.7573 32.0939 32.9345 32.3125 32.9345C32.5311 32.9345 32.7083 32.7573 32.7083 32.5387V28.9762C32.7083 28.539 33.0628 28.1845 33.5 28.1845C33.9372 28.1845 34.2917 28.539 34.2917 28.9762V32.9345ZM38.25 40.8512C38.25 41.2884 37.8956 41.6429 37.4583 41.6429C37.0211 41.6429 36.6667 41.2884 36.6667 40.8512V36.8929C36.6667 36.4556 36.3122 36.1012 35.875 36.1012C35.4378 36.1012 35.0833 35.7467 35.0833 35.3095V31.3512C35.0833 30.3068 35.5958 29.3762 36.3816 28.7986C37.2716 28.1443 38.25 29.08 38.25 30.1845V40.8512Z" fill="#493CDF"/>
</svg>
