<svg width="66" height="66" viewBox="0 0 66 66" fill="none" xmlns="http://www.w3.org/2000/svg">
<rect x="0.833344" y="0.142853" width="65" height="65" rx="8" fill="#FAFAFA"/>
<path d="M37.65 28.4762L39.5 30.3262L29.0167 40.8095L27.1667 38.9595L37.65 28.4762ZM21 22.3095H45.6667C47.3779 22.3095 48.75 23.6816 48.75 25.3929V31.5595C47.9323 31.5595 47.148 31.8844 46.5698 32.4626C45.9915 33.0408 45.6667 33.8251 45.6667 34.6429C45.6667 35.4606 45.9915 36.2449 46.5698 36.8231C47.148 37.4013 47.9323 37.7262 48.75 37.7262V43.8929C48.75 45.6041 47.3779 46.9762 45.6667 46.9762H21C20.1823 46.9762 19.398 46.6513 18.8198 46.0731C18.2415 45.4949 17.9167 44.7106 17.9167 43.8929V37.7262C19.6279 37.7262 21 36.3541 21 34.6429C21 33.8251 20.6752 33.0408 20.0969 32.4626C19.5187 31.8844 18.7344 31.5595 17.9167 31.5595V25.3929C17.9167 24.5751 18.2415 23.7908 18.8198 23.2126C19.398 22.6344 20.1823 22.3095 21 22.3095ZM21 25.3929V29.3087C21.9368 29.8489 22.7149 30.6263 23.2559 31.5627C23.7968 32.4991 24.0816 33.5614 24.0816 34.6429C24.0816 35.7243 23.7968 36.7866 23.2559 37.723C22.7149 38.6594 21.9368 39.4368 21 39.977V43.8929H45.6667V39.977C44.7298 39.4368 43.9518 38.6594 43.4108 37.723C42.8699 36.7866 42.585 35.7243 42.585 34.6429C42.585 33.5614 42.8699 32.4991 43.4108 31.5627C43.9518 30.6263 44.7298 29.8489 45.6667 29.3087V25.3929H21ZM29.4792 28.4762C30.7588 28.4762 31.7917 29.5091 31.7917 30.7887C31.7917 32.0683 30.7588 33.1012 29.4792 33.1012C28.1996 33.1012 27.1667 32.0683 27.1667 30.7887C27.1667 29.5091 28.1996 28.4762 29.4792 28.4762ZM37.1875 36.1845C38.4671 36.1845 39.5 37.2174 39.5 38.497C39.5 39.7766 38.4671 40.8095 37.1875 40.8095C35.9079 40.8095 34.875 39.7766 34.875 38.497C34.875 37.2174 35.9079 36.1845 37.1875 36.1845Z" fill="#5F3EF6"/>
</svg>
